<svg xmlns="http://www.w3.org/2000/svg" viewBox="0 0 24 24">
  <path fill="#2496ED" d="M13.983 11.078h2.119a.186.186 0 00.186-.185V9.006a.186.186 0 00-.186-.186h-2.119a.185.185 0 00-.185.185v1.888c0 .102.083.185.185.185m-2.954-5.43h2.118a.186.186 0 00.186-.186V3.574a.186.186 0 00-.186-.185h-2.118a.185.185 0 00-.185.185v1.888c0 .102.082.185.185.185m0 2.716h2.118a.187.187 0 00.186-.186V6.29a.186.186 0 00-.186-.185h-2.118a.185.185 0 00-.185.185v1.887c0 .102.082.185.185.186m-2.93 0h2.12a.186.186 0 00.184-.186V6.29a.185.185 0 00-.185-.185H8.1a.185.185 0 00-.185.185v1.887c0 .102.083.185.185.186m-2.964 0h2.119a.186.186 0 00.185-.186V6.29a.185.185 0 00-.185-.185H5.136a.186.186 0 00-.186.185v1.887c0 .102.084.185.186.186m5.893 2.715h2.118a.186.186 0 00.186-.185V9.006a.186.186 0 00-.186-.186h-2.118a.185.185 0 00-.185.185v1.888c0 .102.082.185.185.185m-2.93 0h2.12a.185.185 0 00.184-.185V9.006a.185.185 0 00-.184-.186h-2.12a.185.185 0 00-.184.185v1.888c0 .102.083.185.185.185m-2.964 0h2.119a.185.185 0 00.185-.185V9.006a.185.185 0 00-.184-.186h-2.12a.186.186 0 00-.186.186v1.887c0 .102.084.185.186.185m-2.92 0h2.12a.185.185 0 00.184-.185V9.006a.185.185 0 00-.184-.186h-2.12a.185.185 0 00-.184.185v1.888c0 .102.082.185.185.185M23.763 9.89c-.065-.051-.672-.51-1.954-.51-.338 0-.676.03-1.01.087-.239-1.133-.537-2.291-1.433-3.298l-.288-.314-.314.288a4.331 4.331 0 00-.832 1.145 4.23 4.23 0 00-.474 1.755c0 .717.179 1.392.523 1.998a3.95 3.95 0 01-1.608.42H.002l-.002.02a13.207 13.207 0 00.043 1.417 8.577 8.577 0 00.373 2.154 4.164 4.164 0 00.98 1.686c1.004.991 2.465 1.491 4.344 1.491 1.313 0 2.554-.23 3.687-.688a12.44 12.44 0 003.378-1.88 13.593 13.593 0 002.428-2.562 11.543 11.543 0 001.494-2.526h.068a4.83 4.83 0 001.648-.117 3.253 3.253 0 001.168-.532 2.632 2.632 0 00.622-.705c.132-.25.23-.525.288-.813l.04-.2-.192-.146z"/>
</svg>
