<?xml version="1.0" encoding="UTF-8"?>
<svg id="Layer_1" xmlns="http://www.w3.org/2000/svg" xmlns:xlink="http://www.w3.org/1999/xlink" version="1.1" viewBox="0 0 128 128">
  <!-- Generator: Adobe Illustrator 30.0.0, SVG Export Plug-In . SVG Version: 2.1.1 Build 123)  -->
  <defs>
    <style>
      .st0 {
        fill: url(#linear-gradient2);
      }

      .st1 {
        fill: url(#linear-gradient1);
      }

      .st2 {
        fill: url(#linear-gradient3);
      }

      .st3 {
        fill: url(#linear-gradient);
      }

      .st4, .st5 {
        fill: #fff;
      }

      .st5 {
        font-family: JetBrainsMono-ExtraBold, 'JetBrains Mono';
        font-size: 28px;
        font-weight: 700;
      }
    </style>
    <linearGradient id="linear-gradient" x1="2.9" y1="-151.5" x2="125.1" y2="-29.3" gradientUnits="userSpaceOnUse">
      <stop offset="0" stop-color="#06b6d4"/>
      <stop offset=".5" stop-color="#3b82f6"/>
      <stop offset="1" stop-color="#a855f7"/>
    </linearGradient>
    <linearGradient id="linear-gradient1" x1="152.2" y1="-151.5" x2="274.4" y2="-29.3" xlink:href="#linear-gradient"/>
    <linearGradient id="linear-gradient2" x1="2.9" y1="-286.3" x2="125.1" y2="-164.1" gradientUnits="userSpaceOnUse">
      <stop offset="0" stop-color="#06b6d4"/>
      <stop offset=".5" stop-color="#3b82f6"/>
      <stop offset="1" stop-color="#a855f7"/>
    </linearGradient>
    <linearGradient id="linear-gradient3" x1="16.1" y1="-225.1" x2="98.7" y2="-225.1" xlink:href="#linear-gradient"/>
  </defs>
  <g>
    <rect y="-154.4" width="128" height="128" rx="10" ry="10"/>
    <path class="st3" d="M118-147.4c1.7,0,3,1.3,3,3V-36.4c0,1.7-1.3,3-3,3H10c-1.7,0-3-1.3-3-3v-108c0-1.7,1.3-3,3-3h108M118-154.4H10c-5.5,0-10,4.5-10,10V-36.4c0,5.5,4.5,10,10,10h108c5.5,0,10-4.5,10-10v-108c0-5.5-4.5-10-10-10h0Z"/>
  </g>
  <g>
    <rect x="149.3" y="-154.4" width="128" height="128" rx="10" ry="10"/>
    <path class="st1" d="M267.3-147.4c1.7,0,3,1.3,3,3V-36.4c0,1.7-1.3,3-3,3h-108c-1.7,0-3-1.3-3-3v-108c0-1.7,1.3-3,3-3h108M267.3-154.4h-108c-5.5,0-10,4.5-10,10V-36.4c0,5.5,4.5,10,10,10h108c5.5,0,10-4.5,10-10v-108c0-5.5-4.5-10-10-10h0Z"/>
  </g>
  <text class="st5" transform="translate(15.4 -113.8)"><tspan x="0" y="0">FULL</tspan><tspan x="0" y="33.6">STACK</tspan><tspan x="0" y="67.2">VIBES</tspan></text>
  <g>
    <rect y="-289.2" width="128" height="128" rx="-16.6" ry="-16.6"/>
    <path class="st0" d="M118-282.2c1.7,0,3,1.3,3,3v108c0,1.7-1.3,3-3,3H10c-1.7,0-3-1.3-3-3v-108c0-1.7,1.3-3,3-3h108M118-289.2H10c-5.5,0-10,4.5-10,10v108c0,5.5,4.5,10,10,10h108c5.5,0,10-4.5,10-10v-108c0-5.5-4.5-10-10-10h0Z"/>
  </g>
  <g>
    <path d="M17.3-248.6v-20.4h13.2v3.9h-9v4.5h8.3v3.9h-8.2v8.1h-4.2ZM40.6-248.3c-2.1,0-3.7-.6-4.9-1.7-1.2-1.1-1.8-2.7-1.8-4.6v-14.4h4.2v14.4c0,.9.2,1.5.7,2,.4.5,1.1.7,1.9.7s1.4-.2,1.8-.7c.4-.5.7-1.1.7-2v-14.4h4.2v14.4c0,1.9-.6,3.4-1.8,4.6-1.2,1.1-2.8,1.7-4.9,1.7ZM51.6-248.6v-20.4h4.2v16.5h8.3v3.9h-12.5ZM68.4-248.6v-20.4h4.2v16.5h8.3v3.9h-12.5ZM23.8-214.7c-1.4,0-2.7-.2-3.8-.7-1.1-.5-1.9-1.2-2.5-2-.6-.9-.9-1.9-.9-3.1h4.2c0,.7.3,1.2.8,1.6.5.4,1.3.6,2.2.6s1.6-.2,2.1-.6c.5-.4.7-.9.7-1.6s-.2-1.1-.6-1.5c-.4-.4-.9-.7-1.6-.9l-2.1-.5c-1.7-.4-3.1-1.2-4-2.3-1-1.1-1.4-2.5-1.4-4.1s.3-2.2.8-3.1c.6-.9,1.3-1.6,2.3-2.1,1-.5,2.2-.7,3.6-.7,2.1,0,3.7.5,5,1.6,1.2,1,1.8,2.4,1.8,4.2h-4.2c0-.7-.2-1.2-.7-1.5-.5-.4-1.1-.6-2-.6s-1.4.2-1.8.5c-.4.4-.6.9-.6,1.6s.2,1.1.5,1.5c.3.4.8.7,1.5.9l2.2.5c1.8.4,3.2,1.2,4.1,2.2.9,1.1,1.4,2.4,1.4,4.1s-.3,2.2-.9,3.2c-.6.9-1.4,1.6-2.5,2.1-1.1.5-2.3.8-3.7.8ZM38.5-215v-16.5h-5.2v-3.9h14.6v3.9h-5.2v16.5h-4.2ZM49.7-215l5-20.4h5.3l5.1,20.4h-4.3l-1-4.6h-4.9l-1,4.6h-4.3ZM55.7-223h3.4l-1-4.9c-.1-.7-.3-1.4-.4-2.1-.1-.7-.2-1.2-.3-1.6,0,.4-.2.9-.3,1.6-.1.7-.3,1.4-.4,2.1l-1,5ZM74.3-214.7c-1.4,0-2.6-.3-3.6-.8s-1.8-1.2-2.4-2.2c-.6-.9-.9-2-.9-3.2v-8.7c0-1.3.3-2.3.9-3.2.6-.9,1.4-1.6,2.4-2.1,1-.5,2.2-.8,3.6-.8s2.6.3,3.6.8c1,.5,1.8,1.2,2.4,2.1.6.9.9,2,.9,3.2h-4.2c0-.8-.2-1.4-.7-1.9-.5-.4-1.1-.6-1.9-.6s-1.5.2-1.9.6c-.5.4-.7,1.1-.7,1.9v8.7c0,.8.2,1.4.7,1.9.5.4,1.1.7,1.9.7s1.5-.2,1.9-.7c.5-.4.7-1.1.7-1.9h4.2c0,1.2-.3,2.3-.9,3.2-.6.9-1.4,1.6-2.4,2.2s-2.2.8-3.6.8ZM84.4-215v-20.4h4.2v7.9h2l3.4-7.9h4.6l-4.2,9.8,4.4,10.7h-4.6l-3.5-8.7h-2v8.7h-4.2ZM21.2-181.4l-5.1-20.4h4.3l2.8,12.9c0,.4.2,1,.3,1.7.1.7.2,1.3.3,1.8,0-.5.2-1.1.3-1.8.1-.7.2-1.3.3-1.7l2.7-12.9h4.2l-5,20.4h-5.3ZM34.4-181.4v-3.6h4.1v-13.2h-4.1v-3.6h12.3v3.6h-4.1v13.2h4.1v3.6h-12.3ZM50.8-181.4v-20.4h6.6c2.1,0,3.7.5,5,1.4,1.2.9,1.8,2.2,1.8,3.8s-.2,1.7-.6,2.4-1,1.2-1.7,1.6c-.7.4-1.5.6-2.3.6h0c.9,0,1.8.2,2.5.6.8.4,1.4.9,1.8,1.6.5.7.7,1.6.7,2.6s-.3,2.2-.9,3.1c-.6.9-1.4,1.6-2.4,2.1-1,.5-2.3.7-3.7.7h-6.8ZM54.9-193.6h2.5c.8,0,1.5-.2,1.9-.7.5-.4.7-1,.7-1.8s-.2-1.4-.7-1.8c-.5-.4-1.1-.6-1.9-.6h-2.5v4.8ZM54.9-184.8h2.6c.9,0,1.6-.2,2.2-.7.5-.5.8-1.2.8-2s-.3-1.5-.8-2c-.5-.5-1.2-.7-2.2-.7h-2.6v5.5ZM68-181.4v-20.4h12.6v3.6h-8.5v4.6h7.5v3.6h-7.5v5.1h8.5v3.6h-12.6ZM91-181.1c-1.4,0-2.7-.2-3.8-.7-1.1-.5-1.9-1.2-2.5-2-.6-.9-.9-1.9-.9-3.1h4.2c0,.7.3,1.2.8,1.6.5.4,1.3.6,2.2.6s1.6-.2,2.1-.6c.5-.4.7-.9.7-1.6s-.2-1.1-.6-1.5-.9-.7-1.6-.9l-2.1-.5c-1.7-.4-3.1-1.2-4-2.3-1-1.1-1.4-2.5-1.4-4.1s.3-2.2.8-3.1c.5-.9,1.3-1.6,2.3-2.1,1-.5,2.2-.7,3.6-.7,2.1,0,3.7.5,5,1.6s1.8,2.4,1.8,4.2h-4.2c0-.7-.2-1.2-.7-1.5-.5-.4-1.1-.6-2-.6s-1.4.2-1.8.5c-.4.4-.6.9-.6,1.6s.2,1.1.5,1.5.8.7,1.5.9l2.2.5c1.8.4,3.2,1.2,4.1,2.2.9,1.1,1.4,2.4,1.4,4.1s-.3,2.2-.9,3.2c-.6.9-1.4,1.6-2.5,2.1s-2.3.8-3.7.8Z"/>
    <path class="st2" d="M72.6-269h-4.2v20.4h12.5v-3.9h-8.3v-16.5h0ZM55.8-269h-4.2v20.4h12.5v-3.9h-8.3v-16.5h0ZM47.3-269h-4.2v14.4c0,.9-.2,1.5-.7,2-.4.5-1.1.7-1.8.7s-1.4-.2-1.9-.7c-.4-.5-.7-1.1-.7-2v-14.4h-4.2v14.4c0,1.9.6,3.5,1.8,4.6,1.2,1.1,2.8,1.7,4.9,1.7s3.7-.6,4.9-1.7c1.2-1.1,1.8-2.7,1.8-4.6v-14.4h0ZM30.5-269h-13.2v20.4h4.2v-8.1h8.2v-3.9h-8.3v-4.5h9v-3.9h0ZM74.3-235.7c-1.4,0-2.6.3-3.6.8-1,.5-1.8,1.2-2.4,2.1-.6.9-.9,2-.9,3.2v8.7c0,1.2.3,2.3.9,3.2.6.9,1.4,1.6,2.4,2.2,1,.5,2.2.8,3.6.8s2.6-.3,3.6-.8c1-.5,1.8-1.2,2.4-2.2.6-.9.9-2,.9-3.2h-4.2c0,.8-.2,1.4-.7,1.9-.5.4-1.1.7-1.9.7s-1.5-.2-1.9-.7c-.5-.4-.7-1.1-.7-1.9v-8.7c0-.8.2-1.4.7-1.9.5-.4,1.1-.6,1.9-.6s1.5.2,1.9.6c.5.4.7,1.1.7,1.9h4.2c0-1.3-.3-2.3-.9-3.2-.6-.9-1.4-1.6-2.4-2.1-1-.5-2.2-.8-3.6-.8h0ZM23.7-235.7c-1.4,0-2.6.2-3.6.7-1,.5-1.8,1.2-2.3,2.1-.6.9-.8,1.9-.8,3.1s.5,3,1.4,4.1c1,1.1,2.3,1.9,4,2.3l2.1.5c.7.1,1.2.4,1.6.9.4.4.6.9.6,1.5s-.2,1.2-.7,1.6c-.5.4-1.2.6-2.1.6s-1.6-.2-2.2-.6c-.5-.4-.8-.9-.8-1.6h-4.2c0,1.2.3,2.2.9,3.1.6.9,1.4,1.6,2.5,2,1.1.5,2.3.7,3.8.7s2.7-.3,3.7-.8c1.1-.5,1.9-1.2,2.5-2.1.6-.9.9-2,.9-3.2s-.5-3-1.4-4.1c-.9-1.1-2.3-1.8-4.1-2.2l-2.2-.5c-.6-.1-1.1-.4-1.5-.9-.3-.4-.5-.9-.5-1.5s.2-1.2.6-1.6c.4-.4,1-.5,1.8-.5s1.5.2,2,.6c.5.4.7.9.7,1.5h4.2c0-1.8-.6-3.1-1.8-4.2-1.2-1-2.9-1.6-5-1.6h0ZM98.5-235.4h-4.6l-3.4,7.9h-2v-7.9h-4.2v20.4h4.2v-8.7h2l3.5,8.7h4.6l-4.4-10.7,4.2-9.8h0ZM60-235.4h-5.3l-5,20.4h4.3l1-4.6h4.9l1,4.6h4.3l-5.1-20.4h0ZM55.7-223l1-5c.1-.7.3-1.4.4-2.1.1-.7.2-1.2.3-1.6,0,.4.2.9.3,1.6.1.7.3,1.4.4,2.1l1,4.9h-3.4ZM47.9-235.4h-14.6v3.9h5.2v16.5h4.2v-16.5h5.2v-3.9h0ZM90.9-202.1c-1.4,0-2.6.2-3.6.7-1,.5-1.8,1.2-2.3,2.1-.6.9-.8,1.9-.8,3.1s.5,3,1.4,4.1c1,1.1,2.3,1.9,4,2.3l2.1.5c.7.1,1.2.4,1.6.9.4.4.6.9.6,1.5s-.2,1.2-.7,1.6c-.5.4-1.2.6-2.1.6s-1.6-.2-2.2-.6c-.5-.4-.8-.9-.8-1.6h-4.2c0,1.2.3,2.2.9,3.1.6.9,1.4,1.6,2.5,2,1.1.5,2.3.7,3.8.7s2.7-.3,3.7-.8c1.1-.5,1.9-1.2,2.5-2.1.6-.9.9-2,.9-3.2s-.5-3-1.4-4.1c-.9-1.1-2.3-1.8-4.1-2.2l-2.2-.5c-.6-.1-1.1-.4-1.5-.9s-.5-.9-.5-1.5.2-1.2.6-1.6c.4-.4,1-.5,1.8-.5s1.5.2,2,.6c.5.4.7.9.7,1.5h4.2c0-1.8-.6-3.1-1.8-4.2s-2.9-1.6-5-1.6h0ZM80.6-201.8h-12.6v20.4h12.6v-3.6h-8.5v-5.1h7.5v-3.6h-7.5v-4.6h8.5v-3.6h0ZM57.4-201.8h-6.6v20.4h6.8c1.4,0,2.7-.2,3.7-.7,1-.5,1.9-1.2,2.4-2.1.6-.9.9-1.9.9-3.1s-.2-1.9-.7-2.6c-.5-.7-1.1-1.2-1.8-1.6-.7-.3-1.5-.5-2.4-.5,0,0,0,0-.1,0h0c.8,0,1.6-.3,2.3-.6.7-.4,1.3-.9,1.7-1.6s.6-1.5.6-2.4c0-1.6-.6-2.9-1.8-3.8-1.2-.9-2.9-1.4-5-1.4h0ZM54.9-193.6v-4.8h2.5c.8,0,1.5.2,1.9.6.5.4.7,1,.7,1.8s-.2,1.3-.7,1.8c-.5.4-1.1.7-1.9.7h-2.5ZM54.9-184.8v-5.5h2.6c.9,0,1.6.2,2.2.7.5.5.8,1.2.8,2s-.3,1.5-.8,2c-.5.5-1.2.7-2.2.7h-2.6ZM46.7-201.8h-12.3v3.6h4.1v13.2h-4.1v3.6h12.3v-3.6h-4.1v-13.2h4.1v-3.6h0ZM31.5-201.8h-4.2l-2.7,12.9c0,.5-.2,1-.3,1.7-.1.7-.2,1.3-.3,1.8,0-.5-.2-1.1-.3-1.8-.1-.7-.3-1.3-.3-1.7l-2.8-12.9h-4.3l5.1,20.4h5.3l5-20.4h0Z"/>
  </g>
  <g>
    <path class="st4" d="M166.3-69.9v-41h26.4v7.9h-18.1v9.1h16.6v7.9h-16.5v16.2h-8.4Z"/>
    <path class="st4" d="M212.9-69.4c-2.9,0-5.4-.5-7.5-1.5-2.1-1-3.8-2.3-4.9-4.1s-1.7-3.8-1.7-6.2h8.4c0,1.4.5,2.5,1.6,3.3s2.5,1.2,4.3,1.2,3.1-.4,4.1-1.2c1-.8,1.5-1.9,1.5-3.3s-.4-2.2-1.1-3.1c-.7-.9-1.8-1.4-3.1-1.7l-4.2-1c-3.5-.8-6.2-2.3-8.1-4.6-1.9-2.2-2.9-4.9-2.9-8.2s.6-4.5,1.7-6.3c1.1-1.8,2.7-3.2,4.7-4.1,2-1,4.4-1.5,7.2-1.5,4.2,0,7.5,1,10,3.1,2.4,2.1,3.7,4.9,3.7,8.4h-8.4c0-1.3-.5-2.3-1.4-3.1-.9-.7-2.2-1.1-4-1.1s-2.8.4-3.7,1.1-1.3,1.8-1.3,3.1.3,2.2,1,3.1c.7.8,1.7,1.4,2.9,1.7l4.4,1c3.6.8,6.4,2.3,8.2,4.5,1.9,2.2,2.8,4.9,2.8,8.2s-.6,4.5-1.8,6.3c-1.2,1.8-2.8,3.3-4.9,4.3s-4.6,1.5-7.5,1.5Z"/>
    <path class="st4" d="M241.3-69.9l-10.2-41h8.7l5.7,25.9c.2.9.4,2,.7,3.4.3,1.4.5,2.6.6,3.5.1-1,.3-2.2.6-3.5.2-1.4.4-2.5.6-3.5l5.5-25.8h8.5l-10,41h-10.7Z"/>
  </g>
</svg>